<?xml version="1.0" encoding="UTF-8"?>
<svg id="Capa_1" xmlns="http://www.w3.org/2000/svg" xmlns:xlink="http://www.w3.org/1999/xlink" version="1.1" viewBox="0 0 3702.5 1034">
  <!-- Generator: Adobe Illustrator 29.2.1, SVG Export Plug-In . SVG Version: 2.1.0 Build 116)  -->
  <defs>
    <style>
      .st0 {
        fill: none;
      }

      .st1 {
        clip-path: url(#clippath-1);
      }

      .st2 {
        clip-path: url(#clippath);
      }
    </style>
    <clipPath id="clippath">
      <rect class="st0" width="3702.5" height="1034"/>
    </clipPath>
    <clipPath id="clippath-1">
      <rect class="st0" width="3702.5" height="1034"/>
    </clipPath>
  </defs>
  <g class="st2">
    <g class="st1">
      <g>
        <path d="M1281,868c-61,0-129,125-223,125s-233-111-233-221c0-180,185-554,216-623,19-43,40-67,61-67,38,0,39,24,84,24s54-21,54-56-30-48-79-48c-80,0-124,18-221,251-24,56-80,194-138,333-17,41-24,54-30,54-9,0-31-49-89-200-50-132-101-263-151-395-7-17-28-27-56-27h-211c-61,0-88,34-88,65s19,50,45,50c45,0,61-83,112-83h39c10,0,20,5.1,30.2,14.7l-231.2,629.3c-14,37-52,96-84,96H10L0,818h312l10-28h-46c-27,0-80-6-52-83L437.9,112.4c73.1,128.2,160.7,432,312.1,702.6,62,111,173,218,341,218s231-86,231-132-13-33-41-33Z"/>
        <path d="M3635,408c0-37-33-70-88-70h-2c-110.9,0-221.8,107.9-268.7,242.2l-.3-.2c-38,71-114,205-224,205s-77-45-77-105c0-123,93-311,183-311s27,51,27,94,19,36,37,36,52-27,52-63c0-52-26-98-86-98-108.5,0-215.5,117.8-264.8,242.1h-.2c-32,64.9-113,204.9-169,204.9s-22-10-22-24c0-87,163-327,163-382s-10-26-33-26h-164.7c22.5-46.5,43.3-90,61.7-129,56-119,102-196,171-196s47,12,47,45-61,68-61,105,14,32,30,32c38,0,70-42,70-98S2972,1,2914,0c-47.6.6-94.4,21.1-142.2,75.9-15.1-19.7-45.2-36.9-88.8-36.9-69,0-135,43-202,181l-63.9,133h-134.3C2314.1,160.4,2200,0,2028,0s-411,227-442,494c-21,185,92,340,248,340s386.9-206.1,442-447h124.7l-230.7,480c-9.5,19-21.5,42.4-36,64.7-9.4-26.1-18.6-48.7-46-48.7s-35,13-35,33,12.7,49.9,34.2,70.9c-17.1,14-36.2,23.1-57.2,23.1-97,0-44-127-120-127s-39,19-39,43c0,42,61,108,146,108s61.5-7.8,95.2-27.3c25.9,16.6,58.6,27.3,94.8,27.3,83,0,185-58,263-218,69.9-141.2,146.1-295.4,210.9-429h95.1c23,0,31,7,31,23,0,44-150,250-150,344s36,80,74,80c65.4,0,127.7-90.4,166.9-161-1.9,13.7-2.9,27-2.9,40,0,71,50,121,120,121,110.5,0,190.3-87.2,240.3-162-1.5,13.6-2.3,27.3-2.3,41,0,71,50,121,120,121s153-58,210-120l-24-18c-45,48-99,89-149,89-90.5,0-88.7-120.8-46.8-232.2,159.9-4,271.8-63.7,271.8-144.8ZM1841,791c-113,0-185-146-157-320,38-246,193-437,344-437s193.2,143.6,160.6,319h-115.6c-55,0-95,29-95,67s19,45,41,45c54,0,27-78,120-78h42c-55.7,223.3-210.6,404-340,404ZM2568,209c43-91,82-135,128-135s44.7,12,53.3,30.3c-22.1,30.4-44.5,68.4-67.3,115.7l-64.1,133h-119.5c24.9-50.7,48.5-99.3,69.6-144ZM2394,818c-50,103-77,192-174,192s-53.9-14.3-66.2-33.3c43.6-37.6,88-96.6,129.2-184.7,58-123.5,131.8-269.8,198.6-405h119.9l-207.6,431ZM3526,369c30,0,47,14,47,38,0,67.2-70.8,108.8-197.5,115.9,37.3-83.1,95.3-153.9,150.5-153.9Z"/>
        <path d="M1257,344c-158,0-303,213-303,366s38,124,114,124c162,0,304-211,304-365s-41-125-115-125ZM1083,803c-34,0-52-29-52-74,0-119,100-354,212-354s52,28,52,74c0,116-101,354-212,354Z"/>
      </g>
      <path d="M3655.1,738.1c8.1,0,15.9,2,23.4,6.1s13.3,9.9,17.6,17.5c4.3,7.6,6.4,15.5,6.4,23.8s-2.1,16.1-6.3,23.6c-4.2,7.5-10,13.3-17.5,17.5-7.5,4.2-15.4,6.3-23.6,6.3s-16.1-2.1-23.6-6.3c-7.5-4.2-13.3-10-17.5-17.5-4.2-7.5-6.3-15.4-6.3-23.6s2.1-16.2,6.4-23.8c4.3-7.6,10.1-13.4,17.6-17.5,7.5-4.1,15.3-6.1,23.4-6.1M3655.1,747.4c-6.5,0-12.8,1.6-18.8,4.9-6,3.3-10.7,7.9-14.1,14-3.4,6.1-5.2,12.5-5.2,19.2s1.7,13,5,19c3.4,6,8.1,10.7,14.1,14.1,6,3.4,12.3,5.1,18.9,5.1s13-1.7,19-5.1c6-3.4,10.7-8.1,14.1-14.1,3.4-6,5.1-12.4,5.1-19s-1.7-13.1-5.2-19.2c-3.4-6.1-8.2-10.8-14.2-14-6-3.3-12.3-4.9-18.8-4.9M3633.6,810.9v-50.3h10.2c9.6,0,14.9,0,16.1.1,3.4.3,6,1,7.9,2,1.9,1,3.4,2.7,4.7,4.8,1.3,2.2,1.9,4.6,1.9,7.2s-1.2,6.7-3.6,9.3c-2.4,2.6-5.7,4.2-10,4.8,1.5.6,2.7,1.2,3.5,1.9.8.7,2,2,3.4,3.9.4.5,1.6,2.5,3.7,6.1l5.9,10.1h-12.6l-4.2-8.2c-2.8-5.5-5.2-8.9-7.1-10.4-1.9-1.4-4.2-2.1-7.1-2.1h-2.7v20.7h-10.2ZM3643.9,782.3h4.1c5.9,0,9.6-.2,11-.7,1.4-.5,2.5-1.2,3.4-2.4.8-1.1,1.2-2.4,1.2-3.9s-.4-2.7-1.2-3.7c-.8-1.1-1.9-1.9-3.4-2.4-1.5-.5-5.1-.7-11-.7h-4.1v13.7Z"/>
    </g>
  </g>
</svg>