<?xml version="1.0" encoding="UTF-8"?>
<svg id="Capa_1" data-name="Capa 1" xmlns="http://www.w3.org/2000/svg" viewBox="0 0 3702.46 1034">
  <path d="M1257,344c-158,0-303,213-303,366,0,74,38,124,114,124,162,0,304-211,304-365,0-74-41-125-115-125ZM1083,803c-34,0-52-29-52-74,0-119,100-354,212-354,34,0,52,28,52,74,0,116-101,354-212,354Z"/>
  <path d="M3635,408c0-37-33-70-88-70h-2c-110.91,0-221.82,107.92-268.73,242.21l-.27-.21c-38,71-114,205-224,205-55,0-77-45-77-105,0-123,93-311,183-311,66,0,27,51,27,94,0,15,19,36,37,36,24,0,52-27,52-63,0-52-26-98-86-98-108.54,0-215.47,117.8-264.77,242.15l-.23-.15c-32,65-113,205-169,205-13,0-22-10-22-24,0-87,163-327,163-382,0-21-10-26-33-26h-164.67c22.48-46.53,43.3-90.04,61.67-129,56-119,102-196,171-196,18,0,47,12,47,45s-61,68-61,105c0,17,14,32,30,32,38,0,70-42,70-98,0-66-44-111-102-112-47.6.62-94.44,21.12-142.16,75.9-15.07-19.74-45.18-36.9-88.84-36.9-69,0-135,43-202,181l-63.93,133h-134.32C2314.08,160.42,2200.03,0,2028,0c-199,0-411,227-442,494-21,185,92,340,248,340,188.76,0,386.88-206.14,442-447h124.72l-230.73,480c-9.52,19.03-21.52,42.41-35.96,64.71-9.36-26.12-18.63-48.71-46.04-48.71-19,0-35,13-35,33,0,24.38,12.7,49.89,34.22,70.93-17.13,14.04-36.21,23.07-57.22,23.07-97,0-44-127-120-127-25,0-39,19-39,43,0,42,61,108,146,108,29.15,0,61.51-7.83,95.15-27.33,25.89,16.58,58.64,27.33,94.85,27.33,83,0,185-58,263-218,69.92-141.23,146.08-295.4,210.87-429h95.13c23,0,31,7,31,23,0,44-150,250-150,344,0,56,36,80,74,80,65.43,0,127.67-90.4,166.92-160.98-1.92,13.65-2.92,27.03-2.92,39.98,0,71,50,121,120,121,110.48,0,190.31-87.16,240.28-162.05-1.5,13.63-2.28,27.34-2.28,41.05,0,71,50,121,120,121,78,0,153-58,210-120l-24-18c-45,48-99,89-149,89-90.53,0-88.72-120.81-46.82-232.22,159.89-3.99,271.82-63.66,271.82-144.78ZM1841,791c-113,0-185-146-157-320,38-246,193-437,344-437,122.97,0,193.24,143.59,160.55,319h-115.55c-55,0-95,29-95,67,0,26,19,45,41,45,54,0,27-78,120-78h42.04c-55.74,223.33-210.59,404-340.04,404ZM2568,209c43-91,82-135,128-135,25.08,0,44.7,11.98,53.28,30.29-22.13,30.35-44.5,68.44-67.28,115.71l-64.05,133h-119.55c24.92-50.66,48.55-99.29,69.6-144ZM2394,818c-50,103-77,192-174,192-34.87,0-53.88-14.29-66.21-33.27,43.59-37.63,87.97-96.57,129.21-184.73,58.01-123.52,131.84-269.85,198.63-405h119.94l-207.57,431ZM3526,369c30,0,47,14,47,38,0,67.15-70.82,108.77-197.52,115.9,37.28-83.15,95.26-153.9,150.52-153.9Z"/>
  <path d="M1281,868c-61,0-129,125-223,125-131,0-233-111-233-221,0-180,185-554,216-623,19-43,40-67,61-67,38,0,39,24,84,24,22,0,54-21,54-56,0-32-30-48-79-48-80,0-124,18-221,251-24,56-80,194-138,333-17,41-24,54-30,54-9,0-31-49-89-200-50-132-101-263-151-395-7-17-28-27-56-27h-211c-61,0-88,34-88,65,0,26,19,50,45,50,45,0,61-83,112-83h39c10.03,0,20.04,5.12,30.2,14.67l-231.2,629.33c-14,37-52,96-84,96H10l-10,28h312l10-28h-46c-27,0-80-6-52-83L437.94,112.43c73.09,128.24,160.75,432.05,312.06,702.57,62,111,173,218,341,218,139,0,231-86,231-132,0-16-13-33-41-33Z"/>
  <path d="M3696.06,761.71c-4.27-7.59-10.14-13.42-17.61-17.48s-15.26-6.1-23.39-6.1-15.93,2.03-23.39,6.1c-7.47,4.06-13.34,9.89-17.61,17.48-4.27,7.59-6.4,15.54-6.4,23.83s2.09,16.12,6.28,23.61c4.18,7.49,10.02,13.33,17.51,17.51,7.49,4.19,15.36,6.28,23.61,6.28s16.12-2.09,23.61-6.28c7.49-4.19,13.33-10.02,17.51-17.51,4.19-7.49,6.28-15.36,6.28-23.61s-2.13-16.24-6.41-23.83ZM3688.17,804.54c-3.39,6.02-8.07,10.73-14.08,14.11-6,3.39-12.32,5.08-18.97,5.08s-12.92-1.69-18.94-5.08c-6.02-3.38-10.72-8.09-14.08-14.11-3.36-6.02-5.04-12.36-5.04-19s1.73-13.08,5.17-19.19c3.44-6.1,8.16-10.79,14.14-14.05,5.98-3.26,12.23-4.89,18.75-4.89s12.78,1.63,18.78,4.89c6,3.26,10.73,7.95,14.17,14.05,3.44,6.11,5.17,12.5,5.17,19.19s-1.69,12.98-5.07,19Z"/>
  <path d="M3667.8,794.64c-1.45-1.9-2.58-3.19-3.4-3.87-.83-.68-2-1.31-3.53-1.89,4.29-.62,7.62-2.21,9.99-4.79,2.37-2.58,3.56-5.68,3.56-9.31,0-2.64-.63-5.04-1.89-7.21-1.26-2.17-2.83-3.78-4.7-4.83-1.88-1.05-4.51-1.72-7.89-2.01-1.16-.08-6.52-.12-16.09-.12h-10.21v50.31h10.21v-20.67h2.66c2.85,0,5.2.71,7.06,2.13,1.86,1.42,4.21,4.88,7.06,10.36l4.21,8.17h12.62l-5.94-10.15c-2.11-3.59-3.34-5.63-3.72-6.13ZM3658.99,781.65c-1.42.45-5.09.68-10.99.68h-4.15v-13.74h4.15c5.82,0,9.47.24,10.96.71,1.49.48,2.63,1.26,3.44,2.35.8,1.09,1.21,2.34,1.21,3.75s-.41,2.73-1.24,3.87c-.83,1.14-1.95,1.93-3.38,2.38Z"/>
</svg>