<?xml version="1.0" encoding="UTF-8"?>
<svg id="Capa_1" data-name="Capa 1" xmlns="http://www.w3.org/2000/svg" viewBox="0 0 3161.03 311.18">
  <path d="m0,306.08V18.18h56.56l117.82,192.25V18.18h54.01v287.89h-58.33L54.01,118.34v187.74H0Z"/>
  <path d="m225.79,163.9c0-29.33,4.38-53.94,13.16-73.84,6.55-14.66,15.48-27.82,26.8-39.47,11.32-11.65,23.73-20.3,37.21-25.92,17.93-7.59,38.61-11.39,62.05-11.39,42.42,0,76.36,13.16,101.83,39.47,25.46,26.31,38.19,62.91,38.19,109.78s-12.64,82.84-37.9,109.09c-25.27,26.25-59.04,39.37-101.33,39.37s-76.85-13.06-102.12-39.18c-25.27-26.12-37.9-62.09-37.9-107.91Zm59.9-1.96c0,32.6,7.53,57.31,22.58,74.13,15.06,16.83,34.18,25.23,57.35,25.23s42.18-8.34,57.05-25.03c14.86-16.7,22.29-41.73,22.29-75.12s-7.24-57.6-21.7-73.84c-14.47-16.24-33.68-24.35-57.64-24.35s-43.27,8.22-57.93,24.65c-14.67,16.43-21.99,41.21-21.99,74.33Z"/>
  <path d="m543.51,163.9c0-29.33,4.38-53.94,13.16-73.84,6.55-14.66,15.48-27.82,26.8-39.47,11.32-11.65,23.73-20.3,37.21-25.92,17.93-7.59,38.61-11.39,62.05-11.39,42.42,0,76.36,13.16,101.83,39.47,25.46,26.31,38.19,62.91,38.19,109.78s-12.64,82.84-37.9,109.09c-25.27,26.25-59.04,39.37-101.33,39.37s-76.85-13.06-102.12-39.18c-25.27-26.12-37.9-62.09-37.9-107.91Zm59.9-1.96c0,32.6,7.53,57.31,22.58,74.13,15.06,16.83,34.18,25.23,57.35,25.23s42.18-8.34,57.05-25.03c14.86-16.7,22.29-41.73,22.29-75.12s-7.24-57.6-21.7-73.84c-14.47-16.24-33.68-24.35-57.64-24.35s-43.27,8.22-57.93,24.65c-14.67,16.43-21.99,41.21-21.99,74.33Z"/>
  <path d="m818.52,306.08V18.18h197.36v48.7h-139.23v68.14h115.49v48.7h-115.49v122.35h-58.13Z"/>
  <path d="m1011.9,306.08V18.18h197.36v48.7h-139.23v68.14h113.25v48.7h-113.25v122.35h-58.13Z"/>
  <path d="m1203.13,306.08V18.18h58.13v287.89h-58.13Z"/>
  <path d="m1451.32,200.23l56.36,17.87c-8.64,31.42-23.01,54.76-43.1,70.01-20.1,15.25-45.59,22.88-76.49,22.88-38.22,0-69.65-13.06-94.26-39.18-24.62-26.12-36.92-61.82-36.92-107.12,0-47.92,12.37-85.14,37.11-111.64,24.74-26.51,57.28-39.77,97.6-39.77,35.22,0,63.82,10.41,85.82,31.22,13.09,12.31,22.91,29.98,29.46,53.02l-57.54,13.75c-3.4-14.92-10.5-26.7-21.31-35.35-10.8-8.64-23.92-12.96-39.37-12.96-21.34,0-38.66,7.66-51.94,22.98-13.29,15.32-19.93,40.13-19.93,74.42,0,36.4,6.55,62.32,19.64,77.77,13.09,15.45,30.11,23.17,51.06,23.17,15.45,0,28.73-4.91,39.86-14.72,11.13-9.82,19.12-25.27,23.96-46.35Z"/>
  <path d="m1505.28,306.08V18.18h213.46v48.7h-155.33v63.82h144.53v48.5h-144.53v78.36h160.83v48.51h-218.96Z"/>
  <path d="m1769.77,212.4l56.55-5.5c3.4,18.98,10.31,32.93,20.72,41.82,10.41,8.91,24.45,13.35,42.12,13.35,18.72,0,32.83-3.95,42.32-11.88,9.49-7.92,14.24-17.18,14.24-27.79,0-6.8-2-12.6-5.99-17.38-3.99-4.78-10.97-8.93-20.92-12.47-6.81-2.36-22.32-6.55-46.54-12.57-31.16-7.72-53.02-17.21-65.59-28.48-17.67-15.84-26.51-35.15-26.51-57.93,0-14.66,4.16-28.37,12.47-41.14,8.31-12.76,20.29-22.49,35.93-29.16,15.64-6.68,34.53-10.02,56.66-10.02,36.13,0,63.33,7.93,81.59,23.77,18.26,15.84,27.85,36.99,28.77,63.43l-58.13,2.55c-2.49-14.79-7.83-25.43-16-31.91-8.18-6.48-20.46-9.72-36.82-9.72s-30.11,3.47-39.67,10.4c-6.15,4.45-9.23,10.41-9.23,17.87,0,6.81,2.88,12.64,8.64,17.48,7.33,6.15,25.13,12.57,53.41,19.24,28.28,6.68,49.19,13.59,62.74,20.72,13.55,7.14,24.16,16.89,31.82,29.26,7.65,12.37,11.49,27.66,11.49,45.85,0,16.5-4.58,31.94-13.75,46.35-9.17,14.4-22.13,25.1-38.89,32.11-16.76,7.01-37.64,10.5-62.64,10.5-36.4,0-64.35-8.41-83.86-25.23-19.51-16.82-31.16-41.34-34.95-73.54Z"/>
  <path d="m2065.27,306.08V66.89h-85.43V18.18h228.79v48.7h-85.23v239.19h-58.13Z"/>
  <path d="m2193.46,18.18h58.13v155.92c0,24.75.72,40.78,2.16,48.12,2.48,11.78,8.41,21.24,17.77,28.37,9.36,7.14,22.16,10.7,38.39,10.7s28.93-3.37,37.31-10.11c8.38-6.74,13.42-15.03,15.12-24.84,1.7-9.82,2.55-26.12,2.55-48.9V18.18h58.13v151.21c0,34.56-1.57,58.98-4.71,73.25-3.15,14.27-8.94,26.31-17.38,36.13-8.44,9.82-19.74,17.64-33.87,23.47-14.14,5.83-32.6,8.74-55.38,8.74-27.49,0-48.34-3.18-62.54-9.52-14.21-6.35-25.44-14.6-33.68-24.74-8.25-10.15-13.68-20.78-16.3-31.92-3.8-16.5-5.69-40.85-5.69-73.05V18.18Z"/>
  <path d="m2438,18.18h106.24c23.96,0,42.23,1.83,54.79,5.5,16.89,4.97,31.35,13.82,43.4,26.51,12.04,12.7,21.21,28.25,27.49,46.64,6.28,18.39,9.43,41.08,9.43,68.05,0,23.7-2.94,44.12-8.84,61.27-7.2,20.95-17.48,37.9-30.83,50.86-10.08,9.82-23.7,17.48-40.85,22.98-12.83,4.06-29.98,6.09-51.45,6.09h-109.39V18.18Zm58.13,48.7v190.68h43.4c16.23,0,27.95-.91,35.15-2.75,9.43-2.36,17.25-6.35,23.47-11.98,6.22-5.63,11.29-14.89,15.22-27.79,3.93-12.89,5.9-30.47,5.9-52.73s-1.97-39.34-5.9-51.26c-3.93-11.91-9.43-21.21-16.5-27.88-7.07-6.68-16.03-11.19-26.91-13.55-8.12-1.83-24.02-2.75-47.72-2.75h-26.12Z"/>
  <path d="m2677.16,307.02V19.12h58.13v287.89h-58.13Z"/>
  <path d="m2733.6,163.9c0-29.33,4.38-53.94,13.16-73.84,6.55-14.66,15.48-27.82,26.8-39.47,11.32-11.65,23.73-20.3,37.21-25.92,17.93-7.59,38.61-11.39,62.05-11.39,42.42,0,76.36,13.16,101.83,39.47,25.46,26.31,38.19,62.91,38.19,109.78s-12.64,82.84-37.9,109.09c-25.27,26.25-59.04,39.37-101.33,39.37s-76.85-13.06-102.12-39.18c-25.27-26.12-37.9-62.09-37.9-107.91Zm59.9-1.96c0,32.6,7.53,57.31,22.58,74.13,15.06,16.83,34.18,25.23,57.35,25.23s42.18-8.34,57.05-25.03c14.86-16.7,22.29-41.73,22.29-75.12s-7.24-57.6-21.7-73.84c-14.47-16.24-33.68-24.35-57.64-24.35s-43.27,8.22-57.93,24.65c-14.67,16.43-21.99,41.21-21.99,74.33Z"/>
  <path d="m3073.34,0c15.04,0,29.46,3.76,43.27,11.28,13.82,7.52,24.67,18.3,32.57,32.34,7.9,14.05,11.85,28.74,11.85,44.08s-3.87,29.82-11.62,43.68c-7.74,13.85-18.54,24.65-32.4,32.4-13.85,7.75-28.41,11.62-43.68,11.62s-29.82-3.87-43.68-11.62c-13.85-7.74-24.65-18.54-32.4-32.4-7.75-13.85-11.62-28.41-11.62-43.68s3.95-30.03,11.85-44.08c7.9-14.04,18.76-24.82,32.57-32.34,13.81-7.52,28.24-11.28,43.27-11.28Zm.11,17.18c-12.06,0-23.62,3.01-34.69,9.04-11.07,6.03-19.79,14.7-26.16,25.99-6.37,11.3-9.57,23.13-9.57,35.49s3.11,24,9.33,35.15c6.22,11.14,14.91,19.84,26.05,26.1,11.14,6.26,22.82,9.39,35.03,9.39s23.99-3.13,35.09-9.39c11.11-6.26,19.79-14.96,26.05-26.1,6.26-11.14,9.39-22.86,9.39-35.15s-3.19-24.19-9.56-35.49c-6.37-11.29-15.11-19.96-26.22-25.99-11.1-6.03-22.69-9.04-34.75-9.04Zm-39.72,117.46V41.57h18.89c17.71,0,27.62.08,29.76.23,6.26.53,11.12,1.77,14.6,3.72,3.47,1.94,6.37,4.92,8.7,8.93,2.33,4.01,3.49,8.46,3.49,13.34,0,6.72-2.19,12.46-6.58,17.23-4.39,4.77-10.55,7.73-18.49,8.87,2.82,1.07,4.99,2.23,6.53,3.49,1.53,1.26,3.62,3.64,6.29,7.16.69.91,2.98,4.69,6.87,11.34l10.99,18.77h-23.36l-7.79-15.11c-5.27-10.15-9.62-16.54-13.05-19.17-3.44-2.63-7.78-3.95-13.05-3.95h-4.92v38.24h-18.89Zm18.89-52.9h7.67c10.91,0,17.69-.42,20.32-1.25,2.64-.84,4.71-2.31,6.24-4.41,1.53-2.1,2.29-4.48,2.29-7.16s-.74-4.91-2.23-6.93c-1.49-2.02-3.61-3.47-6.36-4.35-2.75-.87-9.5-1.31-20.27-1.31h-7.67v25.41Z"/>
</svg>