<?xml version="1.0" encoding="UTF-8"?>
<svg id="Capa_1" xmlns="http://www.w3.org/2000/svg" version="1.1" viewBox="0 0 3702.5 1034">
  <!-- Generator: Adobe Illustrator 29.2.1, SVG Export Plug-In . SVG Version: 2.1.0 Build 116)  -->
  <path d="M427.5,350.3c-27.5,0-51.7,4.5-72.7,13.3-15.8,6.6-30.3,16.7-43.6,30.4-13.3,13.6-23.7,29.1-31.4,46.2-5.7,13-9.8,27.6-12.4,44v-128.2h-63.3v225.2l-138-225.2H0v337.2h0s63.3,0,63.3,0v-219.9l135.9,219.9h68.3v-126.7c5.7,35.1,19.5,64,41.3,86.6,29.6,30.6,70.1,45.9,119.6,45.9s89.1-15.4,118.7-46.1c29.6-30.7,44.4-72.9,44.4-127.8s-14.9-97.8-44.7-128.6c-29.8-30.8-69.6-46.2-119.3-46.2ZM495.1,611.5c-17.4,19.5-39.7,29.3-66.8,29.3s-49.5-9.8-67.2-29.6c-17.6-19.7-26.4-48.6-26.4-86.8h0c0-38.8,8.6-67.8,25.8-87.1,17.2-19.2,39.8-28.9,67.9-28.9s50.6,9.5,67.5,28.5c16.9,19,25.4,47.4,25.4,86.5s-8.7,68.4-26.1,88Z"/>
  <polygon points="1699.9 569.3 1699.9 569.3 1699.9 569.3 1699.9 569.3"/>
  <path d="M1831.2,544.7h169.3v-56.8h-169.3v-74.8h181.9v-57h-250v86.7c-7.6-23.9-18.5-42.6-32.6-55.8-25.8-24.4-59.3-36.6-100.5-36.6s-85.3,15.5-114.3,46.6c-19.1,20.4-31.8,46.3-38.4,77.5v-118.4h-518.6v118.3c-6.6-31.3-19.9-57.3-39.8-77.8-29.8-30.8-69.6-46.2-119.3-46.2s-51.7,4.5-72.7,13.3c-15.8,6.6-30.3,16.7-43.6,30.4-13.3,13.6-23.7,29.1-31.4,46.2-10.3,23.3-15.4,52.1-15.4,86.5h0c0,53.7,14.8,95.8,44.4,126.4s70.1,45.9,119.6,45.9,89.1-15.4,118.7-46.1c19.7-20.5,32.9-46,39.4-77v117.4h68.1v-143.3h135.3v-57h-135.3v-79.8h158.4v280.2h68.1v-143.3h132.6v-57h-132.6v-79.8h155.9v280.2h68.1v-114.9c6.5,29.8,19.2,54.7,38.1,74.8,28.8,30.6,65.6,45.9,110.4,45.9s66-8.9,89.6-26.8c21.5-16.3,37.4-40.5,47.7-72.6v93.7h256.5v-56.8h-188.4v-91.8ZM867.2,611.5c-17.4,19.5-39.7,29.3-66.8,29.3s-49.5-9.8-67.2-29.6c-17.6-19.7-26.4-48.6-26.4-86.8h0c0-38.8,8.6-67.8,25.8-87.1,17.2-19.2,39.8-28.9,67.9-28.9s50.6,9.5,67.5,28.5c16.9,19,25.4,47.4,25.4,86.5s-8.7,68.4-26.1,88ZM1699.9,569.3c-5.7,24.7-15,42.8-28.1,54.3-13,11.5-28.6,17.2-46.7,17.2s-44.5-9-59.8-27.1c-15.3-18.1-23-48.5-23-91.1s7.8-69.2,23.3-87.2c15.6-17.9,35.8-26.9,60.8-26.9s33.5,5.1,46.1,15.2c12.7,10.1,21,23.9,25,41.4l65.5-15.7v139.9l-63.2-20Z"/>
  <path d="M2770,542.6c0,26.7-1,45.8-3,57.3-2,11.5-7.9,21.2-17.7,29.1-9.8,7.9-24.7,11.8-43.7,11.8s-34-4.2-45-12.5c-11-8.4-17.9-19.4-20.8-33.2-1.7-8.6-2.5-27.4-2.5-56.4v-182.6h-318.3v38.7c-4.3-6-9.4-11.6-15.3-16.6-21.4-18.6-53.2-27.8-95.6-27.8s-48,3.9-66.4,11.7c-18.3,7.8-32.4,19.2-42.1,34.2-9.7,15-14.6,31-14.6,48.2,0,26.7,10.4,49.3,31.1,67.9,14.7,13.2,40.3,24.3,76.8,33.4,28.4,7.1,46.5,12,54.5,14.7,11.7,4.1,19.8,9,24.5,14.6,4.7,5.6,7,12.4,7,20.4,0,12.4-5.6,23.3-16.7,32.5-11.1,9.3-27.6,13.9-49.6,13.9s-37.1-5.2-49.3-15.6c-12.2-10.4-20.3-26.8-24.3-49l-66.2,6.4h0c4.4,37.7,18.1,66.4,40.9,86.1,22.9,19.7,55.6,29.6,98.2,29.6s53.7-4.1,73.4-12.3,34.8-20.7,45.6-37.6c10.7-16.9,16.1-35,16.1-54.3s-4.5-39.2-13.5-53.7c-9-14.5-21.4-25.9-37.3-34.3-15.9-8.4-40.4-16.4-73.5-24.3-33.1-7.8-54-15.3-62.6-22.5-6.7-5.7-10.1-12.5-10.1-20.5s3.6-15.7,10.8-20.9c11.2-8.1,27.3-12.2,46.5-12.2s33.5,3.8,43.1,11.4c9.6,7.6,15.8,20.1,18.7,37.4l68.1-3c-.5-14.5-3.3-27.6-8.2-39.3h89.8v280.1h68.1v-280.2h82.1v122.8c0,37.7,2.2,66.2,6.7,85.6,3.1,13,9.4,25.5,19.1,37.4,9.7,11.9,22.8,21.5,39.4,29,16.6,7.4,41.1,11.2,73.3,11.2s48.3-3.4,64.9-10.2c16.6-6.8,29.8-16,39.7-27.5s16.7-25.6,20.4-42.3c3.7-16.7,5.5-45.3,5.5-85.8v-177.1h-68.1v186.5Z"/>
  <path d="M3688.6,385.9c-9.3-16.4-22-29.1-38.1-37.9-16.2-8.8-33.1-13.2-50.7-13.2h0c-17.6,0-34.5,4.4-50.7,13.2-16.2,8.8-28.9,21.4-38.1,37.9-5.4,9.6-9.2,19.4-11.4,29.5-4.6-6.7-9.7-12.9-15.3-18.8-29.8-30.8-69.6-46.2-119.3-46.2s-51.7,4.5-72.7,13.3c-15.8,6.6-30.3,16.7-43.6,30.4-13.3,13.6-23.7,29.1-31.4,46.2-6.6,15-11.1,32.2-13.4,51.8v-134.9h-68.1v128.7c-1.8-13.9-4.7-26.5-8.5-37.6-7.4-21.5-18.1-39.8-32.2-54.6-14.1-14.9-31.1-25.2-50.8-31.1-14.7-4.3-36.1-6.4-64.2-6.4h-124.4v337.2h128.1c25.1,0,45.2-2.4,60.3-7.1,20.1-6.4,36-15.4,47.8-26.9,15.6-15.2,27.7-35,36.1-59.6,3.5-10.1,6.1-21.1,7.8-33.2v127.9h68.1v-135.1c4.9,38.5,19.1,69.8,42.4,93.9,29.6,30.6,70.1,45.9,119.6,45.9s89.1-15.4,118.7-46.1c29.6-30.7,44.4-72.9,44.4-127.8s-.1-8.9-.3-13.2c5.9,5.6,12.6,10.5,20,14.7,16.2,9.1,33.3,13.6,51.2,13.6s34.9-4.5,51.2-13.6c16.2-9.1,28.9-21.7,37.9-37.9,9.1-16.2,13.6-33.2,13.6-51.2s-4.6-35.2-13.9-51.6ZM3061,586.6c-4.6,15.1-10.5,26-17.8,32.5-7.3,6.6-16.4,11.3-27.5,14-8.4,2.2-22.2,3.2-41.2,3.2h-50.8v-223.3h0s30.6,0,30.6,0c27.8,0,46.4,1.1,55.9,3.2,12.7,2.8,23.2,8,31.5,15.9,8.3,7.8,14.7,18.7,19.3,32.7,4.6,14,6.9,34,6.9,60s-2.3,46.7-6.9,61.8ZM3432.4,611.5c-17.4,19.5-39.7,29.3-66.8,29.3s-49.5-9.8-67.2-29.6c-17.6-19.7-26.4-48.6-26.4-86.8h0c0-38.8,8.6-67.8,25.8-87.1,17.2-19.2,39.8-28.9,67.9-28.9s50.6,9.5,67.5,28.5c16.9,19,25.4,47.4,25.4,86.5s-8.7,68.4-26.1,88ZM3671.5,478.7c-7.3,13-17.5,23.2-30.5,30.6-13,7.3-26.8,11-41.1,11s-28-3.7-41-11c-13-7.3-23.2-17.5-30.5-30.6-7.3-13.1-10.9-26.7-10.9-41.2s3.7-28.3,11.2-41.6c7.5-13.2,17.7-23.4,30.6-30.4,13-7.1,26.5-10.6,40.6-10.6,14.1,0,27.7,3.5,40.7,10.6,13,7.1,23.2,17.2,30.7,30.4,7.5,13.2,11.2,27.2,11.2,41.6s-3.7,28.1-11,41.2Z"/>
  <path d="M3627.4,457.2c-3.1-4.1-5.6-6.9-7.4-8.4-1.8-1.5-4.3-2.8-7.6-4.1,9.3-1.3,16.5-4.8,21.7-10.4,5.1-5.6,7.7-12.3,7.7-20.2s-1.4-10.9-4.1-15.6c-2.7-4.7-6.1-8.2-10.2-10.5-4.1-2.3-9.8-3.7-17.1-4.4-2.5-.2-14.1-.3-34.9-.3h-22.1v109h0s22.1,0,22.1,0v-44.8h5.8c6.2,0,11.3,1.5,15.3,4.6,4,3.1,9.1,10.6,15.3,22.5l9.1,17.7h27.4l-12.9-22c-4.6-7.8-7.2-12.2-8-13.3ZM3608.3,429c-3.1,1-11,1.5-23.8,1.5h-9v-29.8h9c12.6,0,20.5.5,23.7,1.5,3.2,1,5.7,2.7,7.4,5.1s2.6,5,2.6,8.1-.9,5.9-2.7,8.4c-1.8,2.5-4.2,4.2-7.3,5.2Z"/>
</svg>